<svg xmlns="http://www.w3.org/2000/svg" xmlns:xlink="http://www.w3.org/1999/xlink" width="500" zoomAndPan="magnify" viewBox="0 0 375 374.999991" height="500" preserveAspectRatio="xMidYMid meet" version="1.0"><defs><g/><clipPath id="e92fd0b14f"><path d="M 159.222656 212 L 215.472656 212 L 215.472656 220.351562 L 159.222656 220.351562 Z M 159.222656 212 " clip-rule="nonzero"/></clipPath><clipPath id="156e1d24b6"><path d="M 181 77.851562 L 194 77.851562 L 194 112 L 181 112 Z M 181 77.851562 " clip-rule="nonzero"/></clipPath><clipPath id="cd2a484ffb"><path d="M 109.636719 110.546875 L 163 110.546875 L 163 220.796875 L 109.636719 220.796875 Z M 109.636719 110.546875 " clip-rule="nonzero"/></clipPath><clipPath id="159e1a846f"><path d="M 212 110.546875 L 265.636719 110.546875 L 265.636719 220.796875 L 212 220.796875 Z M 212 110.546875 " clip-rule="nonzero"/></clipPath></defs><g clip-path="url(#e92fd0b14f)"><path stroke-linecap="round" transform="matrix(0.374457, 0, 0, 0.374457, 155.478949, 74.109252)" fill-opacity="1" fill="#ff751f" fill-rule="evenodd" stroke-linejoin="round" d="M 155.500164 390.503565 L 15.49525 390.503565 C 12.74126 390.503565 10.498427 388.260733 10.498427 385.496311 L 10.498427 375.502666 C 10.498427 372.738245 12.74126 370.495412 15.49525 370.495412 L 155.500164 370.495412 C 158.264585 370.495412 160.496986 372.738245 160.496986 375.502666 L 160.496986 385.496311 C 160.496986 388.260733 158.264585 390.503565 155.500164 390.503565 Z M 155.500164 390.503565 " stroke="#000000" stroke-width="1" stroke-opacity="1" stroke-miterlimit="1"/></g><path stroke-linecap="round" transform="matrix(0.374457, 0, 0, 0.374457, 155.478949, 74.109252)" fill-opacity="1" fill="#ff751f" fill-rule="evenodd" stroke-linejoin="round" d="M 145.496087 370.495412 L 25.499327 370.495412 C 22.734905 370.495412 20.502504 368.263011 20.502504 365.49859 L 20.502504 345.500868 C 20.502504 342.736447 22.734905 340.504046 25.499327 340.504046 L 145.496087 340.504046 C 148.260509 340.504046 150.503341 342.736447 150.503341 345.500868 L 150.503341 365.49859 C 150.503341 368.263011 148.260509 370.495412 145.496087 370.495412 Z M 145.496087 370.495412 " stroke="#000000" stroke-width="1" stroke-opacity="1" stroke-miterlimit="1"/><path stroke-linecap="round" transform="matrix(0.374457, 0, 0, 0.374457, 155.478949, 74.109252)" fill-opacity="1" fill="#ff751f" fill-rule="evenodd" stroke-linejoin="round" d="M 135.502442 340.504046 L 35.503403 340.504046 C 32.738982 340.504046 30.496149 338.261213 30.496149 335.496792 C 30.496149 332.742802 32.738982 330.499969 35.503403 330.499969 L 135.502442 330.499969 C 138.266864 330.499969 140.499265 332.742802 140.499265 335.496792 C 140.499265 338.261213 138.266864 340.504046 135.502442 340.504046 Z M 135.502442 340.504046 " stroke="#000000" stroke-width="1" stroke-opacity="1" stroke-miterlimit="1"/><path stroke-linecap="round" transform="matrix(0.374457, 0, 0, 0.374457, 155.478949, 74.109252)" fill-opacity="1" fill="#ff751f" fill-rule="evenodd" stroke-linejoin="round" d="M 124.966345 340.504046 L 44.965027 340.504046 C 42.200606 340.504046 40.208136 338.261213 40.500226 335.496792 L 54.426651 205.495955 C 54.729173 202.741965 57.201505 200.499132 59.965926 200.499132 L 109.965446 200.499132 C 112.729867 200.499132 115.202199 202.741965 115.504721 205.495955 L 129.431146 335.496792 C 129.723236 338.261213 127.730766 340.504046 124.966345 340.504046 Z M 124.966345 340.504046 " stroke="#000000" stroke-width="1" stroke-opacity="1" stroke-miterlimit="1"/><path stroke-linecap="round" transform="matrix(0.374457, 0, 0, 0.374457, 155.478949, 74.109252)" fill-opacity="1" fill="#ff751f" fill-rule="evenodd" stroke-linejoin="round" d="M 135.502442 210.503209 L 35.503403 210.503209 C 32.738982 210.503209 30.496149 208.260376 30.496149 205.495955 L 30.496149 195.50231 C 30.496149 192.737888 32.738982 190.495056 35.503403 190.495056 L 135.502442 190.495056 C 138.266864 190.495056 140.499265 192.737888 140.499265 195.50231 L 140.499265 205.495955 C 140.499265 208.260376 138.266864 210.503209 135.502442 210.503209 Z M 135.502442 210.503209 " stroke="#000000" stroke-width="1" stroke-opacity="1" stroke-miterlimit="1"/><path stroke-linecap="round" transform="matrix(0.374457, 0, 0, 0.374457, 155.478949, 74.109252)" fill-opacity="1" fill="#ff751f" fill-rule="evenodd" stroke-linejoin="round" d="M 125.498366 190.495056 L 45.497048 190.495056 C 42.743058 190.495056 40.500226 188.262655 40.500226 185.498233 C 40.500226 182.733812 42.743058 180.501411 45.497048 180.501411 L 125.498366 180.501411 C 128.262787 180.501411 130.495188 182.733812 130.495188 185.498233 C 130.495188 188.262655 128.262787 190.495056 125.498366 190.495056 Z M 125.498366 190.495056 " stroke="#000000" stroke-width="1" stroke-opacity="1" stroke-miterlimit="1"/><path stroke-linecap="round" transform="matrix(0.374457, 0, 0, 0.374457, 155.478949, 74.109252)" fill-opacity="1" fill="#ff751f" fill-rule="evenodd" stroke-linejoin="round" d="M 115.504721 180.501411 L 55.501125 180.501411 C 52.736703 180.501411 50.504302 178.258578 50.504302 175.504588 C 50.504302 172.740167 52.736703 170.497334 55.501125 170.497334 L 115.504721 170.497334 C 118.258711 170.497334 120.501543 172.740167 120.501543 175.504588 C 120.501543 178.258578 118.258711 180.501411 115.504721 180.501411 Z M 115.504721 180.501411 " stroke="#000000" stroke-width="1" stroke-opacity="1" stroke-miterlimit="1"/><path stroke-linecap="round" transform="matrix(0.374457, 0, 0, 0.374457, 155.478949, 74.109252)" fill-opacity="1" fill="#ff751f" fill-rule="evenodd" stroke-linejoin="round" d="M 115.504721 170.497334 L 55.501125 170.497334 C 52.736703 170.497334 50.504302 168.264933 50.504302 165.500512 C 50.504302 162.73609 52.736703 160.503689 55.501125 160.503689 L 115.504721 160.503689 C 118.258711 160.503689 120.501543 162.73609 120.501543 165.500512 C 120.501543 168.264933 118.258711 170.497334 115.504721 170.497334 Z M 115.504721 170.497334 " stroke="#000000" stroke-width="1" stroke-opacity="1" stroke-miterlimit="1"/><path fill="#ff751f" d="M 191.238281 111.742188 L 183.75 111.742188 C 182.714844 111.742188 181.878906 110.902344 181.878906 109.871094 L 181.878906 79.914062 C 181.878906 78.878906 182.714844 78.042969 183.75 78.042969 L 191.238281 78.042969 C 192.273438 78.042969 193.113281 78.878906 193.113281 79.914062 L 193.113281 109.871094 C 193.113281 110.902344 192.273438 111.742188 191.238281 111.742188 Z M 191.238281 111.742188 " fill-opacity="1" fill-rule="evenodd"/><g clip-path="url(#156e1d24b6)"><path stroke-linecap="round" transform="matrix(0.374457, 0, 0, 0.374457, 155.478949, 74.109252)" fill="none" stroke-linejoin="round" d="M 95.496567 100.500093 L 75.498846 100.500093 C 72.734424 100.500093 70.502024 98.25726 70.502024 95.503271 L 70.502024 15.501953 C 70.502024 12.737532 72.734424 10.505131 75.498846 10.505131 L 95.496567 10.505131 C 98.260989 10.505131 100.503822 12.737532 100.503822 15.501953 L 100.503822 95.503271 C 100.503822 98.25726 98.260989 100.500093 95.496567 100.500093 Z M 95.496567 100.500093 " stroke="#000000" stroke-width="1" stroke-opacity="1" stroke-miterlimit="1"/></g><path stroke-linecap="round" transform="matrix(0.374457, 0, 0, 0.374457, 155.478949, 74.109252)" fill-opacity="1" fill="#ff751f" fill-rule="evenodd" stroke-linejoin="round" d="M 125.498366 70.498295 L 45.497048 70.498295 C 42.743058 70.498295 40.500226 68.265894 40.500226 65.501473 L 40.500226 45.503751 C 40.500226 42.73933 42.743058 40.496497 45.497048 40.496497 L 125.498366 40.496497 C 128.262787 40.496497 130.495188 42.73933 130.495188 45.503751 L 130.495188 65.501473 C 130.495188 68.265894 128.262787 70.498295 125.498366 70.498295 Z M 125.498366 70.498295 " stroke="#000000" stroke-width="1" stroke-opacity="1" stroke-miterlimit="1"/><path stroke-linecap="round" transform="matrix(0.374457, 0, 0, 0.374457, 155.478949, 74.109252)" fill-opacity="1" fill="#ff751f" fill-rule="evenodd" stroke-linejoin="round" d="M 114.618019 160.503689 L 56.377394 160.503689 C 53.706859 160.503689 50.806824 158.260857 49.909691 155.496435 L 30.496149 95.503271 C 29.609448 92.738849 31.059465 90.496016 33.730001 90.496016 L 137.265413 90.496016 C 139.94638 90.496016 141.396398 92.738849 140.499265 95.503271 L 121.085723 155.496435 C 120.199022 158.260857 117.298987 160.503689 114.618019 160.503689 Z M 114.618019 160.503689 " stroke="#000000" stroke-width="1" stroke-opacity="1" stroke-miterlimit="1"/><g clip-path="url(#cd2a484ffb)"><path fill="#ff914d" d="M 162.601562 219.75 C 159.960938 219.097656 157.445312 218.195312 155.050781 217.109375 C 155.019531 217.046875 154.988281 216.984375 154.925781 216.921875 L 154.894531 216.890625 C 154.769531 212.601562 151.445312 208.125 148.429688 205.328125 C 148.027344 204.957031 147.15625 205.175781 147.21875 205.828125 C 147.65625 209.308594 149.054688 212.695312 151.414062 215.273438 C 147.375 213.003906 143.738281 210.148438 140.414062 206.820312 C 140.476562 206.726562 140.507812 206.605469 140.507812 206.480469 C 140.539062 203.589844 140.132812 200.792969 139.140625 198.058594 C 138.425781 196.101562 137.492188 193.519531 135.566406 192.496094 C 135.128906 192.277344 134.601562 192.558594 134.601562 193.054688 C 134.539062 196.441406 135.253906 199.828125 136.808594 202.8125 C 136.25 202.160156 135.722656 201.476562 135.191406 200.792969 C 131.835938 196.378906 128.820312 191.5625 126.367188 186.527344 C 126.398438 186.464844 126.429688 186.371094 126.398438 186.28125 C 126.367188 186.1875 126.367188 186.09375 126.335938 186 C 126.429688 185.96875 126.554688 185.90625 126.617188 185.78125 C 129.722656 181.183594 129.226562 174.347656 127.828125 169.25 C 127.671875 168.660156 126.894531 168.628906 126.585938 169.09375 C 123.726562 173.257812 123.695312 178.042969 124.625 182.707031 C 122.980469 178.820312 121.707031 174.78125 120.898438 170.648438 C 120.554688 168.90625 120.308594 167.167969 120.183594 165.457031 C 120.277344 165.457031 120.398438 165.425781 120.492188 165.363281 C 125.0625 162.597656 127.609375 156.445312 128.324219 151.378906 C 128.417969 150.726562 127.703125 150.167969 127.144531 150.695312 C 123.972656 153.742188 121.488281 157.378906 120.027344 161.480469 C 120.121094 154.984375 121.644531 148.738281 124.191406 142.804688 C 124.285156 142.898438 124.441406 142.957031 124.59375 142.957031 C 129.941406 142.710938 135.007812 138.019531 137.710938 133.730469 C 138.019531 133.230469 137.492188 132.515625 136.933594 132.703125 C 133.046875 134.007812 129.476562 135.875 126.304688 138.421875 C 129.226562 132.828125 132.957031 127.574219 137.121094 122.757812 L 137.152344 122.757812 C 139.792969 121.453125 142.867188 120.367188 145.011719 118.285156 C 146.847656 116.480469 147.839844 114.027344 148.804688 111.695312 C 149.113281 110.949219 148.183594 110.546875 147.625 110.886719 C 147.5625 110.855469 147.53125 110.855469 147.4375 110.855469 C 145.042969 111.136719 142.929688 112.070312 141.191406 113.746094 C 139.292969 115.609375 138.394531 118.128906 136.996094 120.335938 C 133.792969 123.785156 130.875 127.605469 128.324219 131.679688 C 129.070312 125.929688 130.035156 119.777344 128.542969 114.121094 C 128.355469 113.4375 127.515625 113.4375 127.175781 113.933594 C 123.011719 119.777344 122.542969 128.105469 126.925781 133.976562 C 124.160156 138.761719 121.984375 143.890625 120.585938 149.113281 C 120.460938 146.875 120.277344 144.667969 120.027344 142.460938 C 119.871094 141 120.183594 138.078125 118.910156 137.054688 C 118.660156 136.835938 118.316406 136.773438 118.039062 136.929688 C 113.222656 139.851562 115.304688 150.976562 119.46875 153.585938 C 119.5 153.617188 119.53125 153.617188 119.59375 153.617188 C 118.878906 157.65625 118.628906 161.730469 118.972656 165.832031 L 118.972656 165.863281 C 118.972656 165.925781 118.972656 165.988281 119 166.046875 C 119.125 167.507812 119.3125 168.9375 119.59375 170.398438 C 119.777344 171.425781 120.027344 172.417969 120.277344 173.414062 C 119.15625 171.519531 117.757812 169.621094 116.453125 167.976562 C 114.929688 166.046875 113.128906 164.527344 110.703125 163.875 C 110.144531 163.71875 109.710938 164.214844 109.804688 164.773438 C 110.984375 170.367188 115.210938 175.246094 120.804688 176.769531 C 120.960938 176.800781 121.082031 176.769531 121.175781 176.707031 C 122.886719 182.269531 125.371094 187.679688 128.355469 192.710938 C 127.144531 191.71875 125.871094 190.816406 124.503906 190.070312 C 122.667969 189.046875 120.089844 187.460938 117.945312 188.144531 C 117.570312 188.269531 117.292969 188.671875 117.417969 189.046875 C 119.25 194.703125 125.03125 198.335938 130.875 196.753906 L 130.902344 196.753906 C 132.179688 198.679688 133.546875 200.542969 134.945312 202.316406 C 137.152344 205.144531 139.636719 207.878906 142.371094 210.332031 C 138.953125 208.59375 134.664062 208.1875 131.089844 208.5625 C 130.5 208.625 130.128906 209.308594 130.59375 209.773438 C 134.476562 213.628906 140.382812 215.179688 145.574219 213.160156 C 145.632812 213.128906 145.664062 213.097656 145.695312 213.066406 C 150.636719 216.796875 156.261719 219.53125 162.476562 220.402344 C 162.851562 220.527344 163.070312 219.875 162.601562 219.75 Z M 141.96875 115.113281 C 141.875 115.300781 141.8125 115.457031 141.71875 115.640625 C 141.5 115.828125 141.285156 116.015625 141.066406 116.234375 C 141.347656 115.828125 141.65625 115.457031 141.96875 115.113281 Z M 141.96875 115.113281 " fill-opacity="1" fill-rule="nonzero"/></g><g clip-path="url(#159e1a846f)"><path fill="#ff914d" d="M 212.480469 220.464844 C 218.695312 219.59375 224.320312 216.859375 229.261719 213.128906 C 229.292969 213.160156 229.355469 213.191406 229.386719 213.222656 C 234.574219 215.242188 240.480469 213.6875 244.363281 209.835938 C 244.832031 209.371094 244.457031 208.6875 243.867188 208.625 C 240.324219 208.28125 236.003906 208.6875 232.585938 210.394531 C 235.320312 207.941406 237.808594 205.238281 240.015625 202.378906 C 241.414062 200.574219 242.75 198.710938 244.054688 196.816406 L 244.085938 196.816406 C 249.929688 198.367188 255.707031 194.765625 257.542969 189.109375 C 257.667969 188.703125 257.386719 188.332031 257.011719 188.207031 C 254.871094 187.492188 252.289062 189.078125 250.457031 190.132812 C 249.089844 190.910156 247.816406 191.78125 246.601562 192.773438 C 249.585938 187.710938 252.070312 182.332031 253.78125 176.769531 C 253.875 176.832031 254 176.863281 254.15625 176.832031 C 259.75 175.308594 263.976562 170.429688 265.15625 164.835938 C 265.28125 164.308594 264.8125 163.8125 264.253906 163.9375 C 261.832031 164.558594 260.058594 166.078125 258.503906 168.039062 C 257.199219 169.683594 255.800781 171.582031 254.683594 173.476562 C 254.929688 172.480469 255.148438 171.457031 255.367188 170.460938 C 255.644531 169 255.832031 167.570312 255.957031 166.109375 C 255.988281 166.046875 255.988281 165.988281 255.988281 165.925781 L 255.988281 165.894531 C 256.328125 161.824219 256.082031 157.71875 255.367188 153.679688 C 255.398438 153.679688 255.429688 153.648438 255.492188 153.648438 C 259.65625 151.039062 261.738281 139.914062 256.921875 136.992188 C 256.640625 136.804688 256.296875 136.898438 256.050781 137.117188 C 254.777344 138.171875 255.085938 141.0625 254.929688 142.523438 C 254.683594 144.730469 254.496094 146.96875 254.371094 149.175781 C 252.972656 143.921875 250.765625 138.824219 248.03125 134.039062 C 252.414062 128.167969 251.949219 119.835938 247.785156 113.964844 C 247.441406 113.46875 246.570312 113.46875 246.417969 114.152344 C 244.925781 119.808594 245.886719 125.960938 246.632812 131.710938 C 244.085938 127.636719 241.164062 123.816406 237.933594 120.335938 C 236.566406 118.128906 235.664062 115.609375 233.738281 113.746094 C 231.996094 112.070312 229.882812 111.136719 227.492188 110.855469 C 227.429688 110.855469 227.367188 110.855469 227.304688 110.886719 C 226.746094 110.546875 225.84375 110.949219 226.125 111.695312 C 227.085938 114.027344 228.082031 116.480469 229.914062 118.285156 C 232.058594 120.367188 235.136719 121.453125 237.777344 122.757812 L 237.808594 122.757812 C 241.972656 127.574219 245.703125 132.828125 248.621094 138.421875 C 245.453125 135.875 241.878906 134.007812 237.996094 132.703125 C 237.402344 132.515625 236.90625 133.230469 237.21875 133.730469 C 239.890625 137.988281 244.988281 142.710938 250.332031 142.957031 C 250.488281 142.957031 250.613281 142.898438 250.734375 142.804688 C 253.253906 148.738281 254.808594 154.984375 254.898438 161.480469 C 253.441406 157.378906 250.953125 153.742188 247.785156 150.695312 C 247.222656 150.167969 246.507812 150.726562 246.601562 151.378906 C 247.316406 156.445312 249.867188 162.597656 254.433594 165.363281 C 254.558594 165.425781 254.652344 165.457031 254.746094 165.457031 C 254.621094 167.167969 254.371094 168.90625 254.03125 170.648438 C 253.191406 174.75 251.917969 178.789062 250.300781 182.707031 C 251.234375 178.011719 251.203125 173.257812 248.34375 169.09375 C 248.03125 168.628906 247.253906 168.660156 247.101562 169.25 C 245.703125 174.347656 245.203125 181.214844 248.3125 185.78125 C 248.40625 185.90625 248.5 185.96875 248.589844 186 C 248.5625 186.09375 248.5625 186.1875 248.53125 186.28125 C 248.5 186.371094 248.53125 186.464844 248.5625 186.527344 C 246.105469 191.59375 243.058594 196.378906 239.734375 200.792969 C 239.207031 201.476562 238.679688 202.160156 238.117188 202.8125 C 239.640625 199.828125 240.355469 196.441406 240.324219 193.054688 C 240.324219 192.558594 239.796875 192.277344 239.363281 192.496094 C 237.464844 193.519531 236.535156 196.101562 235.789062 198.058594 C 234.792969 200.761719 234.390625 203.589844 234.421875 206.480469 C 234.421875 206.605469 234.453125 206.726562 234.515625 206.820312 C 231.21875 210.148438 227.554688 213.003906 223.511719 215.273438 C 225.875 212.695312 227.304688 209.308594 227.707031 205.828125 C 227.800781 205.175781 226.898438 204.957031 226.496094 205.328125 C 223.480469 208.125 220.15625 212.601562 220.03125 216.890625 L 220 216.921875 C 219.9375 216.984375 219.90625 217.046875 219.875 217.109375 C 217.484375 218.195312 214.964844 219.066406 212.324219 219.75 C 211.796875 219.875 212.015625 220.527344 212.480469 220.464844 Z M 233.800781 116.203125 C 233.582031 116.015625 233.363281 115.828125 233.148438 115.609375 C 233.054688 115.425781 232.992188 115.269531 232.898438 115.113281 C 233.207031 115.457031 233.519531 115.828125 233.800781 116.203125 Z M 233.800781 116.203125 " fill-opacity="1" fill-rule="nonzero"/></g><g fill="#ff914d" fill-opacity="1"><g transform="translate(133.737739, 175.607859)"><g><path d="M 0.84375 -1.703125 L 0.84375 -9.15625 L 2.546875 -10.859375 L 6.421875 -10.859375 L 6.421875 -8.84375 L 5.71875 -9.15625 L 3.390625 -9.15625 L 2.78125 -8.53125 L 2.78125 -2.328125 L 3.390625 -1.703125 L 5.71875 -1.703125 L 6.421875 -2.015625 L 6.4375 0 L 2.5625 0 Z M 0.84375 -1.703125 "/></g></g></g><g fill="#ff914d" fill-opacity="1"><g transform="translate(140.636969, 175.607859)"><g><path d="M 1.078125 -0.703125 L 1.078125 -10.15625 L 0.765625 -10.859375 L 3.328125 -10.859375 L 3.015625 -10.15625 L 3.015625 -6.203125 L 5.109375 -6.203125 L 5.109375 -10.15625 L 4.796875 -10.859375 L 7.359375 -10.859375 L 7.046875 -10.15625 L 7.046875 -0.703125 L 7.375 0 L 4.8125 0 L 5.109375 -0.703125 L 5.109375 -4.5 L 3.015625 -4.5 L 3.015625 -0.703125 L 3.328125 0 L 0.78125 0 Z M 1.078125 -0.703125 "/></g></g></g><g fill="#ff914d" fill-opacity="1"><g transform="translate(148.77651, 175.607859)"><g><path d="M 1.078125 -0.703125 L 1.078125 -10.15625 L 0.765625 -10.859375 L 6.34375 -10.859375 L 6.34375 -8.84375 L 5.640625 -9.15625 L 3.015625 -9.15625 L 3.015625 -6.28125 L 4.71875 -6.28125 L 5.421875 -6.59375 L 5.421875 -4.265625 L 4.71875 -4.578125 L 3.015625 -4.578125 L 3.015625 -1.703125 L 5.796875 -1.703125 L 6.5 -2.015625 L 6.515625 0 L 0.78125 0 Z M 1.078125 -0.703125 "/></g></g></g><g fill="#ff914d" fill-opacity="1"><g transform="translate(155.753263, 175.607859)"><g><path d="M 0.609375 -2.015625 L 1.296875 -1.703125 L 3.25 -1.703125 L 3.859375 -2.328125 L 3.859375 -3.484375 L 0.609375 -6.75 L 0.609375 -9.15625 L 2.3125 -10.859375 L 5.796875 -10.859375 L 5.796875 -8.84375 L 5.109375 -9.15625 L 3.171875 -9.15625 L 2.546875 -8.53125 L 2.546875 -7.453125 L 5.796875 -4.1875 L 5.796875 -1.703125 L 4.109375 0 L 0.625 0 Z M 0.609375 -2.015625 "/></g></g></g><g fill="#ff914d" fill-opacity="1"><g transform="translate(161.877168, 175.607859)"><g><path d="M 0.609375 -2.015625 L 1.296875 -1.703125 L 3.25 -1.703125 L 3.859375 -2.328125 L 3.859375 -3.484375 L 0.609375 -6.75 L 0.609375 -9.15625 L 2.3125 -10.859375 L 5.796875 -10.859375 L 5.796875 -8.84375 L 5.109375 -9.15625 L 3.171875 -9.15625 L 2.546875 -8.53125 L 2.546875 -7.453125 L 5.796875 -4.1875 L 5.796875 -1.703125 L 4.109375 0 L 0.625 0 Z M 0.609375 -2.015625 "/></g></g></g><g fill="#ff914d" fill-opacity="1"><g transform="translate(212.855132, 175.607859)"><g><path d="M 1.296875 -2.015625 L 2 -1.703125 L 3.9375 -1.703125 L 4.5625 -2.328125 L 4.5625 -4.109375 L 2.3125 -4.109375 L 0.609375 -5.8125 L 0.609375 -9.3125 L 2.3125 -11.015625 L 4.796875 -11.015625 L 6.5 -9.3125 L 6.5 -1.703125 L 4.796875 0 L 1.3125 0 Z M 4.5625 -5.8125 L 4.5625 -8.6875 L 3.9375 -9.3125 L 3.171875 -9.3125 L 2.546875 -8.6875 L 2.546875 -6.40625 L 3.109375 -5.8125 Z M 4.5625 -5.8125 "/></g></g></g><g fill="#ff914d" fill-opacity="1"><g transform="translate(220.219473, 175.607859)"><g><path d="M 0.84375 -1.546875 L 0.84375 -9.15625 L 2.5625 -10.859375 L 6.03125 -10.859375 L 6.03125 -8.84375 L 5.34375 -9.15625 L 3.390625 -9.15625 L 2.78125 -8.53125 L 2.78125 -6.75 L 5.03125 -6.75 L 6.734375 -5.046875 L 6.734375 -1.546875 L 5.03125 0.15625 L 2.546875 0.15625 Z M 4.171875 -1.546875 L 4.796875 -2.171875 L 4.796875 -4.453125 L 4.234375 -5.046875 L 2.78125 -5.046875 L 2.78125 -2.171875 L 3.390625 -1.546875 Z M 4.171875 -1.546875 "/></g></g></g><g fill="#ff914d" fill-opacity="1"><g transform="translate(227.583815, 175.607859)"><g><path d="M 0.84375 -1.546875 L 0.84375 -9.3125 L 2.546875 -11.015625 L 5.1875 -11.015625 L 6.890625 -9.3125 L 6.890625 -1.546875 L 5.1875 0.15625 L 2.546875 0.15625 Z M 4.328125 -1.546875 L 4.953125 -2.171875 L 4.953125 -8.6875 L 4.328125 -9.3125 L 3.390625 -9.3125 L 2.78125 -8.6875 L 2.78125 -2.171875 L 3.390625 -1.546875 Z M 4.328125 -1.546875 "/></g></g></g></svg>